<svg xmlns="http://www.w3.org/2000/svg" width="128" height="128" viewBox="0 0 24 24"><path d="M21.25 21H2.75A2.752 2.752 0 0 1 0 18.25V5.75A2.752 2.752 0 0 1 2.75 3h18.5A2.752 2.752 0 0 1 24 5.75v12.5A2.752 2.752 0 0 1 21.25 21zM2.75 4.5c-.689 0-1.25.561-1.25 1.25v12.5c0 .689.561 1.25 1.25 1.25h18.5c.689 0 1.25-.561 1.25-1.25V5.75c0-.689-.561-1.25-1.25-1.25z"/><path d="M7.5 12C6.122 12 5 10.878 5 9.5S6.122 7 7.5 7 10 8.122 10 9.5 8.878 12 7.5 12zm0-3.5c-.551 0-1 .449-1 1s.449 1 1 1 1-.449 1-1-.449-1-1-1zM11.25 17a.75.75 0 0 1-.75-.75v-.5c0-.689-.561-1.25-1.25-1.25h-3.5c-.689 0-1.25.561-1.25 1.25v.5a.75.75 0 0 1-1.5 0v-.5A2.752 2.752 0 0 1 5.75 13h3.5A2.752 2.752 0 0 1 12 15.75v.5a.75.75 0 0 1-.75.75zM20.25 9h-5.5a.75.75 0 0 1 0-1.5h5.5a.75.75 0 0 1 0 1.5zM20.25 13h-5.5a.75.75 0 0 1 0-1.5h5.5a.75.75 0 0 1 0 1.5zM20.25 17h-5.5a.75.75 0 0 1 0-1.5h5.5a.75.75 0 0 1 0 1.5z"/></svg>