<svg xmlns="http://www.w3.org/2000/svg" xmlns:xlink="http://www.w3.org/1999/xlink" width="500" zoomAndPan="magnify" viewBox="0 0 375 374.999991" height="500" preserveAspectRatio="xMidYMid meet" version="1.0"><defs><clipPath id="f1e49a94e1"><path d="M 0 10 L 373 10 L 373 367.78125 L 0 367.78125 Z M 0 10 " clip-rule="nonzero"/></clipPath></defs><g clip-path="url(#f1e49a94e1)"><path fill="#22354d" d="M 369.867188 13.152344 C 364.734375 7.851562 320.308594 7.066406 267.652344 34.765625 C 237.675781 50.535156 191.742188 98.832031 157.929688 137.273438 L 121.589844 130.058594 C 119.289062 129.601562 116.90625 130.230469 115.125 131.757812 L 72.941406 168.023438 C 69.613281 170.886719 69.378906 175.960938 72.433594 179.113281 C 74.40625 181.148438 77.339844 181.925781 80.0625 181.132812 L 110.941406 172.109375 C 113.660156 171.316406 116.597656 172.089844 118.570312 174.128906 L 122.835938 178.535156 C 117.476562 185.054688 114.324219 189.007812 114.148438 189.226562 L 113.808594 189.65625 L 113.898438 190.191406 C 113.914062 190.277344 114.363281 192.855469 115.484375 196.925781 C 108.195312 205.820312 103.789062 211.457031 103.789062 211.457031 C 103.789062 211.457031 104.527344 213.933594 106.128906 217.839844 C 82.234375 219.195312 59.347656 237.445312 52.875 243.035156 L 49.070312 246.324219 L 53.960938 245.160156 C 54.570312 245.015625 55.210938 244.859375 55.875 244.695312 C 62.089844 243.175781 70.976562 241 79.886719 242.8125 C 65.929688 246.058594 51.496094 255.402344 41.992188 263.738281 L 37.578125 267.609375 L 43.175781 265.832031 C 52.132812 262.984375 61.71875 261.882812 71.109375 262.605469 C 56.042969 273.648438 47.269531 295.570312 44.644531 306.191406 C 37.917969 333.375 24.640625 352.703125 4.050781 365.277344 L 0 367.753906 L 4.742188 367.554688 C 46.035156 365.820312 86.859375 345 112.792969 312.785156 C 110 320.953125 105.074219 328.355469 98.5625 334.058594 L 92.644531 339.242188 L 99.863281 336.109375 C 115.800781 329.1875 128.421875 314.992188 133.625 298.433594 C 134.488281 302.851562 134.042969 307.503906 132.289062 311.675781 L 128.503906 320.691406 L 134.402344 312.890625 C 143.101562 301.394531 149.761719 288.617188 154.199219 274.90625 C 154.761719 273.171875 155.308594 271.324219 155.769531 269.40625 C 160.007812 271.398438 162.753906 272.378906 162.753906 272.378906 C 162.753906 272.378906 168.585938 268.125 177.785156 261.09375 C 181.738281 262.378906 184.246094 262.957031 184.328125 262.976562 L 184.878906 263.101562 L 185.332031 262.765625 C 185.554688 262.597656 189.625 259.566406 196.339844 254.417969 C 196.496094 254.617188 196.664062 254.808594 196.84375 254.996094 L 202.117188 260.441406 C 204.085938 262.480469 204.765625 265.441406 203.882812 268.132812 L 193.835938 298.675781 C 192.953125 301.367188 193.632812 304.328125 195.601562 306.363281 C 198.65625 309.519531 203.738281 309.453125 206.707031 306.222656 L 244.371094 265.285156 C 245.960938 263.558594 246.664062 261.199219 246.285156 258.882812 L 239.859375 219.824219 C 279.230469 187.410156 328.269531 143.6875 344.871094 114.539062 C 374.308594 62.859375 375 18.457031 369.867188 13.152344 " fill-opacity="1" fill-rule="nonzero"/></g><path fill="#e08326" d="M 92.636719 229.898438 C 83.394531 231.367188 76.902344 233.859375 68.992188 236.441406 C 75.660156 231.929688 83 228.464844 90.632812 225.914062 C 96.371094 223.996094 105.140625 222.980469 105.140625 222.980469 L 108.363281 229.144531 C 108.363281 229.144531 99.347656 228.828125 92.636719 229.898438 Z M 115.921875 240.363281 C 115.835938 244.417969 115.011719 248.425781 113.949219 252.328125 C 112.882812 256.246094 111.441406 260.046875 109.828125 263.765625 C 108.117188 267.4375 106.28125 271.058594 104.101562 274.46875 C 103.078125 276.210938 101.855469 277.835938 100.714844 279.5 C 99.507812 281.117188 98.242188 282.699219 96.925781 284.230469 C 97.789062 282.394531 98.777344 280.648438 99.691406 278.863281 L 101.066406 276.195312 C 101.53125 275.308594 102.003906 274.429688 102.429688 273.527344 C 102.867188 272.632812 103.3125 271.742188 103.777344 270.859375 C 104.222656 269.96875 104.636719 269.0625 105.066406 268.164062 C 105.964844 266.390625 106.753906 264.566406 107.585938 262.761719 C 109.210938 259.136719 110.714844 255.460938 112.128906 251.742188 C 113.515625 248.011719 114.832031 244.25 115.921875 240.363281 Z M 100.304688 291.644531 L 111.03125 285.453125 C 108.035156 288.347656 104.734375 290.890625 101.324219 293.261719 C 97.917969 295.644531 94.339844 297.769531 90.683594 299.753906 C 88.851562 300.734375 86.980469 301.644531 85.105469 302.546875 L 82.246094 303.796875 C 81.296875 304.222656 80.332031 304.613281 79.351562 304.964844 C 75.488281 306.507812 71.46875 307.664062 67.402344 308.511719 C 71.148438 306.691406 74.914062 305.058594 78.585938 303.207031 C 82.261719 301.390625 85.929688 299.558594 89.527344 297.589844 C 93.148438 295.675781 96.730469 293.671875 100.304688 291.644531 Z M 90.679688 309.890625 C 87.976562 311.882812 85.046875 313.523438 82.042969 314.988281 C 79.042969 316.46875 75.929688 317.699219 72.765625 318.796875 C 71.179688 319.328125 69.574219 319.800781 67.960938 320.257812 C 67.152344 320.476562 66.335938 320.652344 65.519531 320.851562 C 64.710938 321.058594 63.890625 321.234375 63.0625 321.371094 C 59.78125 322.035156 56.421875 322.355469 53.074219 322.363281 C 56.28125 321.34375 59.460938 320.511719 62.601562 319.511719 C 65.742188 318.527344 68.878906 317.558594 71.980469 316.472656 C 78.21875 314.394531 84.359375 312.085938 90.679688 309.890625 Z M 61.226562 339.324219 C 65.695312 337.097656 70.179688 334.886719 74.742188 332.785156 C 70.695312 335.765625 66.453125 338.445312 62.140625 341 C 57.832031 343.566406 53.417969 345.949219 48.933594 348.199219 C 44.425781 350.402344 39.878906 352.535156 35.175781 354.332031 C 30.492188 356.136719 25.699219 357.75 20.757812 358.710938 C 25.394531 356.773438 29.910156 354.6875 34.417969 352.570312 C 35.539062 352.019531 36.660156 351.488281 37.789062 350.960938 L 41.140625 349.316406 C 43.378906 348.222656 45.621094 347.136719 47.839844 346.003906 Z M 55.796875 289.265625 C 67.515625 268.902344 79.515625 262.78125 79.515625 262.78125 C 79.515625 262.78125 71.125 278.878906 61.488281 295.148438 C 56.722656 303.199219 48.691406 316.460938 44.636719 323.71875 C 46.46875 315.886719 51.78125 296.238281 55.796875 289.265625 Z M 78.234375 253.113281 C 68.992188 254.582031 62.5 257.078125 54.589844 259.65625 C 61.257812 255.148438 68.597656 251.679688 76.230469 249.128906 C 81.96875 247.214844 90.738281 246.199219 90.738281 246.199219 L 93.960938 252.363281 C 93.960938 252.363281 84.945312 252.046875 78.234375 253.113281 Z M 58.570312 241.527344 C 66.046875 239.808594 76.027344 238.1875 85.710938 241.96875 L 90.3125 243.761719 L 85.40625 244.332031 C 72.4375 245.835938 58.3125 253.875 47.996094 261.957031 C 53.71875 260.613281 59.621094 259.933594 65.503906 259.933594 C 68.609375 259.933594 71.710938 260.121094 74.785156 260.503906 L 78.292969 260.941406 L 75.269531 262.773438 C 55.085938 275.007812 47.105469 306.464844 47.027344 306.78125 C 40.582031 332.855469 28.214844 351.890625 9.28125 364.824219 C 10.042969 364.765625 10.804688 364.6875 11.5625 364.613281 C 34.617188 359.367188 65.210938 345.886719 84.714844 329.234375 C 78 330.851562 65.636719 328.410156 56.800781 324.375 C 73.53125 323.261719 89.796875 316.128906 101.945312 304.578125 C 93.890625 307.152344 85.480469 308.617188 77.03125 308.917969 C 96.859375 302.371094 114.183594 288.527344 124.9375 270.632812 C 117.957031 277.636719 109.445312 283.109375 100.171875 286.550781 C 107.316406 281.328125 117.953125 258.578125 119.402344 241.253906 C 113.65625 233.703125 109.664062 225.953125 107.15625 220.25 C 106.984375 220.257812 106.8125 220.257812 106.640625 220.265625 C 89.988281 221.082031 71.625 231.246094 58.570312 241.527344 " fill-opacity="1" fill-rule="nonzero"/><path fill="#ebd5aa" d="M 116.632812 135.988281 L 77.699219 169.074219 C 76.515625 170.097656 76.300781 171.132812 76.667969 171.929688 L 120.433594 137.554688 L 78.664062 173.277344 C 79.714844 173.460938 81.003906 173.238281 82.226562 172.363281 C 82.226562 172.363281 108.5 156.398438 114.574219 155.398438 C 116.226562 155.125 118.625 155.476562 121.242188 156.121094 L 131.695312 145.839844 L 122.402344 156.425781 C 123.890625 156.832031 125.417969 157.316406 126.902344 157.824219 L 142.527344 142.453125 L 128.523438 158.402344 C 129.625 158.800781 130.675781 159.199219 131.640625 159.582031 L 150.539062 140.980469 L 133.542969 160.347656 C 135.359375 161.097656 136.601562 161.652344 136.824219 161.753906 C 142.207031 155.386719 148.335938 148.230469 154.992188 140.621094 L 123.097656 134.289062 C 120.792969 133.832031 118.410156 134.457031 116.632812 135.988281 " fill-opacity="1" fill-rule="nonzero"/><path fill="#488ca5" d="M 109.214844 213.035156 L 116.855469 206.480469 L 109.960938 215.09375 C 110.265625 215.90625 110.625 216.828125 111.046875 217.851562 L 118.992188 211.039062 L 111.910156 219.882812 C 114.839844 226.601562 119.871094 236.277344 127.46875 245.105469 L 137.179688 237.222656 C 126.070312 225.707031 119.914062 211.09375 116.765625 201.234375 C 111.652344 207.539062 108.664062 211.363281 108.664062 211.363281 C 108.664062 211.363281 108.84375 211.96875 109.214844 213.035156 " fill-opacity="1" fill-rule="nonzero"/><path fill="#488ca5" d="M 128.9375 246.769531 C 129.46875 247.351562 130.007812 247.929688 130.558594 248.503906 C 132.714844 247.296875 135.988281 244.335938 140.070312 240.035156 C 139.132812 239.171875 138.210938 238.285156 137.316406 237.363281 L 128.9375 246.769531 " fill-opacity="1" fill-rule="nonzero"/><path fill="#ebd5aa" d="M 170.148438 130.828125 C 170.71875 130.273438 171.632812 130.289062 172.183594 130.859375 C 172.738281 131.429688 172.722656 132.339844 172.152344 132.894531 C 171.582031 133.449219 170.667969 133.433594 170.117188 132.859375 C 169.5625 132.289062 169.578125 131.378906 170.148438 130.828125 Z M 314.820312 21.304688 C 315.730469 20.421875 317.1875 20.445312 318.070312 21.359375 C 318.953125 22.273438 318.929688 23.730469 318.015625 24.613281 C 317.105469 25.492188 315.648438 25.46875 314.765625 24.558594 C 313.882812 23.644531 313.90625 22.191406 314.820312 21.304688 Z M 321.878906 29.863281 C 322.761719 30.773438 322.738281 32.230469 321.828125 33.109375 C 320.914062 33.996094 319.457031 33.96875 318.574219 33.058594 C 317.691406 32.144531 317.714844 30.691406 318.625 29.808594 C 319.542969 28.925781 321 28.949219 321.878906 29.863281 Z M 249.640625 114.445312 C 249.074219 115 248.160156 114.984375 247.609375 114.410156 C 247.054688 113.839844 247.070312 112.929688 247.640625 112.378906 C 248.210938 111.828125 249.125 111.839844 249.675781 112.414062 C 250.230469 112.980469 250.214844 113.894531 249.640625 114.445312 Z M 243.433594 107.507812 C 242.867188 108.0625 241.953125 108.046875 241.402344 107.476562 C 240.847656 106.902344 240.863281 105.992188 241.433594 105.441406 C 242.007812 104.890625 242.917969 104.90625 243.46875 105.476562 C 244.023438 106.046875 244.007812 106.957031 243.433594 107.507812 Z M 235.015625 98.8125 C 234.460938 98.238281 234.480469 97.328125 235.050781 96.777344 C 235.621094 96.222656 236.53125 96.238281 237.085938 96.808594 C 237.636719 97.382812 237.621094 98.292969 237.050781 98.84375 C 236.480469 99.398438 235.570312 99.382812 235.015625 98.8125 Z M 231.464844 90.132812 C 230.894531 90.6875 229.984375 90.671875 229.429688 90.097656 C 228.878906 89.527344 228.890625 88.617188 229.464844 88.066406 C 230.035156 87.515625 230.945312 87.53125 231.496094 88.101562 C 232.050781 88.671875 232.035156 89.582031 231.464844 90.132812 Z M 253.636719 118.574219 C 254.207031 118.023438 255.121094 118.035156 255.671875 118.609375 C 256.226562 119.179688 256.210938 120.089844 255.640625 120.640625 C 255.066406 121.191406 254.15625 121.179688 253.605469 120.609375 C 253.050781 120.039062 253.066406 119.128906 253.636719 118.574219 Z M 227.238281 81.628906 C 226.667969 82.183594 225.757812 82.167969 225.203125 81.59375 C 224.652344 81.027344 224.664062 80.113281 225.238281 79.5625 C 225.808594 79.007812 226.71875 79.023438 227.273438 79.597656 C 227.824219 80.167969 227.808594 81.078125 227.238281 81.628906 Z M 187.625 159.472656 C 187.050781 160.027344 186.140625 160.011719 185.589844 159.441406 C 185.035156 158.871094 185.050781 157.960938 185.621094 157.40625 C 186.191406 156.855469 187.101562 156.871094 187.65625 157.441406 C 188.210938 158.011719 188.195312 158.921875 187.625 159.472656 Z M 178.996094 146.058594 C 178.425781 146.609375 177.515625 146.59375 176.960938 146.023438 C 176.410156 145.453125 176.421875 144.542969 176.996094 143.988281 C 177.566406 143.4375 178.476562 143.453125 179.03125 144.023438 C 179.582031 144.59375 179.566406 145.503906 178.996094 146.058594 Z M 197.644531 171.898438 C 197.074219 172.449219 196.164062 172.4375 195.609375 171.863281 C 195.058594 171.292969 195.074219 170.382812 195.644531 169.832031 C 196.214844 169.277344 197.125 169.292969 197.679688 169.863281 C 198.230469 170.433594 198.21875 171.34375 197.644531 171.898438 Z M 169.289062 136.890625 C 169.152344 136.460938 169 136.035156 168.875 135.597656 C 169.019531 136.011719 169.191406 136.417969 169.347656 136.824219 L 184.433594 120.554688 L 169.890625 138.226562 C 171.167969 141.3125 172.707031 144.277344 174.394531 147.152344 C 176.558594 150.828125 178.964844 154.355469 181.519531 157.769531 C 186.597656 164.542969 192.214844 170.894531 198.21875 176.832031 C 200.285156 174.789062 202.355469 172.746094 204.425781 170.703125 C 202.511719 168.53125 200.667969 166.300781 198.917969 164.003906 C 200.933594 166.074219 203.027344 168.054688 205.175781 169.964844 C 207.09375 168.078125 209.003906 166.1875 210.921875 164.296875 C 214.671875 160.625 218.429688 156.957031 222.1875 153.289062 C 221.589844 152.519531 221.058594 151.742188 220.535156 150.957031 C 219.980469 150.117188 219.453125 149.265625 218.933594 148.40625 C 218.492188 148.78125 218.066406 149.164062 217.617188 149.527344 C 215.074219 151.621094 212.464844 153.636719 209.6875 155.46875 C 211.777344 152.882812 214.03125 150.476562 216.324219 148.121094 C 216.828125 147.601562 217.347656 147.101562 217.855469 146.589844 C 216.945312 145.039062 216.0625 143.476562 215.195312 141.910156 C 214.589844 142.496094 213.996094 143.089844 213.390625 143.667969 C 210.359375 146.5 207.300781 149.296875 204.128906 151.972656 C 200.964844 154.664062 197.734375 157.273438 194.328125 159.6875 C 197.050781 156.523438 199.917969 153.523438 202.828125 150.574219 C 205.730469 147.617188 208.710938 144.75 211.699219 141.886719 C 213.894531 139.832031 216.101562 137.785156 218.332031 135.761719 C 217.4375 134.378906 216.574219 132.980469 215.730469 131.574219 C 214.15625 132.992188 212.566406 134.394531 210.945312 135.761719 C 207.78125 138.449219 204.550781 141.0625 201.144531 143.472656 C 203.867188 140.308594 206.730469 137.308594 209.640625 134.363281 C 212.542969 131.402344 215.527344 128.535156 218.515625 125.671875 L 218.703125 125.5 C 218.539062 125.269531 218.371094 125.042969 218.210938 124.8125 C 216.671875 122.605469 215.152344 120.378906 213.742188 118.085938 C 215.320312 120.265625 217.003906 122.359375 218.699219 124.441406 C 218.863281 124.644531 219.035156 124.835938 219.199219 125.035156 C 221.183594 123.175781 223.179688 121.332031 225.195312 119.507812 L 225.054688 119.277344 L 225.214844 119.488281 C 226.03125 118.75 226.835938 118.003906 227.65625 117.273438 C 228.664062 116.378906 229.683594 115.492188 230.703125 114.605469 C 226.941406 108.871094 223.390625 102.988281 220.390625 96.835938 C 223.714844 102.769531 227.546875 108.386719 231.578125 113.835938 C 233.398438 112.257812 235.238281 110.703125 237.125 109.183594 C 235.617188 111.171875 234.023438 113.074219 232.382812 114.933594 C 234.53125 117.796875 236.753906 120.605469 239.039062 123.347656 C 241.136719 125.859375 243.296875 128.320312 245.558594 130.621094 C 245.734375 130.453125 245.90625 130.28125 246.082031 130.113281 L 252.167969 124.273438 C 251.484375 123.535156 250.789062 122.808594 250.113281 122.0625 C 244.339844 115.636719 239.007812 108.828125 234.257812 101.636719 C 231.894531 98.039062 229.675781 94.335938 227.722656 90.503906 C 227.082031 89.253906 226.484375 87.980469 225.90625 86.703125 L 217.207031 95.703125 C 214.066406 98.875 210.941406 102.0625 207.730469 105.167969 C 204.53125 108.289062 201.289062 111.375 197.882812 114.316406 C 200.539062 110.679688 203.394531 107.226562 206.335938 103.851562 C 209.269531 100.46875 212.328125 97.199219 215.449219 93.984375 C 218.570312 90.839844 221.742188 87.742188 225.074219 84.804688 C 224.40625 83.199219 223.820312 81.566406 223.296875 79.914062 L 212.1875 91.265625 C 208.214844 95.289062 204.269531 99.335938 200.332031 103.390625 C 196.421875 107.472656 192.519531 111.542969 188.78125 115.828125 C 191.695312 110.933594 195.246094 106.445312 198.910156 102.105469 C 202.582031 97.757812 206.472656 93.617188 210.433594 89.546875 C 214.433594 85.511719 218.503906 81.554688 222.734375 77.765625 C 226.953125 73.96875 231.261719 70.25 235.882812 66.917969 L 224.058594 79.140625 L 223.363281 79.847656 C 223.96875 81.441406 224.636719 83.007812 225.378906 84.535156 C 228.679688 81.632812 232.09375 78.824219 235.800781 76.425781 L 226.503906 86.085938 L 226.289062 86.308594 C 226.960938 87.601562 227.65625 88.882812 228.394531 90.136719 C 230.558594 93.8125 232.96875 97.339844 235.519531 100.757812 C 240.628906 107.578125 246.292969 113.972656 252.339844 119.945312 C 253.054688 120.648438 253.773438 121.347656 254.496094 122.039062 L 259.460938 117.273438 C 257.558594 115.183594 255.925781 112.9375 254.585938 110.574219 C 253.230469 111.628906 251.863281 112.664062 250.457031 113.65625 C 251.640625 112.285156 252.851562 110.949219 254.078125 109.628906 C 249.175781 100.371094 248.480469 89.507812 251.945312 79.808594 C 253.394531 72.691406 256.921875 65.921875 262.527344 60.503906 C 265.070312 58.042969 267.882812 56.027344 270.859375 54.4375 C 270.761719 54.25 270.660156 54.070312 270.566406 53.878906 C 269.976562 52.730469 269.421875 51.558594 268.886719 50.382812 L 259.121094 55.617188 C 261.945312 53.078125 265.019531 50.851562 268.167969 48.753906 C 267.628906 47.484375 267.117188 46.203125 266.660156 44.898438 L 266.191406 45.144531 C 264.949219 45.824219 263.703125 46.488281 262.449219 47.144531 C 257.472656 49.839844 252.519531 52.5625 247.660156 55.53125 C 251.917969 51.734375 256.660156 48.507812 261.484375 45.484375 C 262.964844 44.554688 264.46875 43.660156 265.980469 42.78125 C 265.894531 42.507812 265.796875 42.238281 265.714844 41.960938 C 265.8125 42.226562 265.925781 42.488281 266.023438 42.753906 C 266.480469 42.488281 266.941406 42.226562 267.402344 41.964844 C 267.03125 41.398438 267.078125 40.644531 267.582031 40.15625 C 268.152344 39.605469 269.0625 39.621094 269.617188 40.191406 C 269.726562 40.308594 269.800781 40.441406 269.863281 40.582031 C 272.019531 39.390625 274.1875 38.230469 276.375 37.105469 C 281.460938 34.539062 286.609375 32.105469 291.898438 29.96875 C 293.226562 29.453125 294.546875 28.90625 295.882812 28.414062 C 297.230469 27.941406 298.566406 27.441406 299.925781 26.996094 C 302.644531 26.140625 305.394531 25.304688 308.222656 24.894531 C 302.863281 26.8125 297.785156 29.285156 292.671875 31.714844 C 287.589844 34.1875 282.519531 36.699219 277.488281 39.292969 C 274.957031 40.546875 272.457031 41.871094 269.949219 43.179688 L 266.824219 44.8125 C 267.347656 46.066406 267.925781 47.300781 268.53125 48.515625 C 268.824219 48.320312 269.117188 48.121094 269.414062 47.929688 C 272.996094 45.585938 276.714844 43.460938 280.488281 41.441406 C 284.285156 39.46875 288.132812 37.589844 292.101562 35.964844 C 296.0625 34.34375 300.132812 32.855469 304.367188 32.101562 C 300.445312 33.824219 296.6875 35.761719 292.90625 37.699219 C 289.144531 39.65625 285.378906 41.613281 281.636719 43.613281 L 272.867188 48.261719 C 273.222656 48.277344 273.574219 48.417969 273.839844 48.695312 C 274.394531 49.265625 274.378906 50.175781 273.808594 50.730469 C 273.238281 51.28125 272.328125 51.265625 271.773438 50.695312 C 271.296875 50.203125 271.269531 49.472656 271.628906 48.921875 L 270.386719 49.578125 L 269.359375 50.128906 C 269.964844 51.269531 270.585938 52.398438 271.238281 53.511719 C 271.34375 53.695312 271.460938 53.875 271.570312 54.058594 C 279.746094 49.914062 289.128906 48.984375 297.835938 51.242188 C 297.753906 51.109375 297.664062 50.980469 297.582031 50.847656 C 297.683594 50.984375 297.796875 51.117188 297.902344 51.257812 C 303.363281 52.679688 308.550781 55.367188 313.015625 59.289062 L 313.078125 59.164062 C 312.714844 58.695312 312.332031 58.238281 311.972656 57.765625 C 312.371094 58.171875 312.78125 58.558594 313.183594 58.960938 C 314.425781 56.441406 315.597656 53.960938 316.714844 51.511719 C 312.40625 46.300781 308.429688 40.839844 304.789062 35.191406 C 308.757812 40.300781 313 45.1875 317.5 49.792969 C 318.566406 47.410156 319.566406 45.066406 320.519531 42.757812 C 319.542969 41.292969 318.597656 39.8125 317.707031 38.292969 C 314.851562 33.394531 312.429688 28.230469 310.832031 22.828125 C 312.914062 28.0625 315.765625 32.917969 318.996094 37.460938 C 319.769531 38.539062 320.570312 39.601562 321.390625 40.644531 C 322.734375 37.308594 323.945312 34.070312 325.0625 30.914062 C 321.066406 24.164062 320.105469 19.386719 319.882812 17.292969 C 305.027344 20.921875 287.605469 27.046875 268.800781 36.9375 C 218.660156 63.308594 122.996094 182.109375 116.421875 190.316406 C 116.535156 190.882812 116.742188 191.886719 117.0625 193.222656 L 169.289062 136.890625 " fill-opacity="1" fill-rule="nonzero"/><path fill="#ebd5aa" d="M 220.148438 127.507812 C 218.730469 128.835938 217.300781 130.152344 215.855469 131.457031 C 216.839844 132.75 217.828125 134.035156 218.847656 135.292969 C 219.511719 134.695312 220.171875 134.082031 220.84375 133.488281 C 221.574219 132.835938 222.316406 132.195312 223.054688 131.546875 L 222.925781 131.378906 C 221.984375 130.097656 221.070312 128.796875 220.148438 127.507812 " fill-opacity="1" fill-rule="nonzero"/><path fill="#ebd5aa" d="M 234.320312 133.25 C 233.546875 134.164062 232.757812 135.066406 231.953125 135.949219 C 231.398438 136.566406 230.8125 137.152344 230.246094 137.75 C 231.515625 139.128906 232.820312 140.488281 234.128906 141.671875 C 235.460938 140.382812 236.796875 139.09375 238.132812 137.804688 C 236.824219 136.46875 235.722656 135.089844 234.636719 133.679688 C 234.53125 133.539062 234.429688 133.394531 234.320312 133.25 " fill-opacity="1" fill-rule="nonzero"/><path fill="#ebd5aa" d="M 231.539062 115.882812 C 230.699219 116.8125 229.855469 117.738281 228.996094 118.648438 C 228.191406 119.511719 227.351562 120.34375 226.53125 121.191406 C 227.675781 122.691406 228.847656 124.164062 230.046875 125.617188 L 230.308594 125.398438 L 230.09375 125.671875 C 230.800781 126.53125 231.503906 127.394531 232.226562 128.238281 C 233.046875 129.191406 233.882812 130.132812 234.726562 131.058594 C 235.871094 130.113281 237.03125 129.175781 238.222656 128.273438 C 237.347656 129.507812 236.429688 130.703125 235.476562 131.867188 C 235.667969 132.074219 235.851562 132.285156 236.042969 132.484375 C 237.277344 133.78125 238.554688 135.058594 239.867188 136.125 C 241.191406 134.847656 242.503906 133.566406 243.832031 132.292969 C 241.613281 129.765625 239.574219 127.152344 237.59375 124.492188 C 235.5 121.667969 233.484375 118.800781 231.539062 115.882812 " fill-opacity="1" fill-rule="nonzero"/><path fill="#ebd5aa" d="M 239.402344 148.050781 C 239.679688 148.335938 239.964844 148.609375 240.238281 148.886719 C 246.53125 142.828125 252.683594 136.777344 258.542969 130.851562 C 256.753906 129.101562 255.007812 127.304688 253.292969 125.484375 L 247.414062 131.457031 C 235.921875 143.089844 224.289062 154.574219 212.640625 166.050781 C 210.761719 167.886719 208.878906 169.71875 207 171.550781 C 208.589844 172.914062 210.210938 174.242188 211.855469 175.53125 C 221.246094 166.917969 230.839844 157.945312 240.136719 148.988281 C 239.890625 148.675781 239.640625 148.367188 239.402344 148.050781 " fill-opacity="1" fill-rule="nonzero"/><path fill="#ebd5aa" d="M 159.628906 217.066406 C 155.796875 220.609375 151.996094 224.183594 148.15625 227.714844 C 148.933594 228.445312 149.71875 229.164062 150.511719 229.875 C 161.308594 220.605469 180.402344 204.070312 201.585938 184.890625 C 200.242188 183.511719 198.921875 182.113281 197.621094 180.699219 C 190.914062 187.222656 184.191406 193.726562 177.414062 200.175781 L 159.628906 217.066406 " fill-opacity="1" fill-rule="nonzero"/><path fill="#ebd5aa" d="M 260.078125 124.703125 C 260.648438 124.152344 261.5625 124.167969 262.113281 124.738281 C 262.667969 125.308594 262.652344 126.21875 262.078125 126.769531 C 261.507812 127.324219 260.597656 127.308594 260.042969 126.738281 C 259.492188 126.164062 259.507812 125.257812 260.078125 124.703125 Z M 266.144531 123.058594 C 264.113281 121.6875 262.1875 120.089844 260.402344 118.273438 L 255.636719 123.113281 C 257.457031 124.832031 259.3125 126.515625 261.207031 128.152344 C 262.882812 126.441406 264.527344 124.746094 266.144531 123.058594 " fill-opacity="1" fill-rule="nonzero"/><path fill="#ebd5aa" d="M 204.210938 182.511719 C 206.226562 180.683594 208.253906 178.832031 210.292969 176.964844 C 208.84375 175.5 207.421875 174.011719 206.035156 172.492188 C 203.992188 174.488281 201.949219 176.484375 199.902344 178.476562 C 201.320312 179.84375 202.753906 181.1875 204.210938 182.511719 " fill-opacity="1" fill-rule="nonzero"/><path fill="#ebd5aa" d="M 220.773438 126.902344 C 221.808594 128.144531 222.832031 129.390625 223.886719 130.613281 L 223.988281 130.726562 C 225.757812 129.183594 227.550781 127.660156 229.378906 126.171875 C 228.335938 124.59375 227.324219 122.996094 226.34375 121.382812 C 224.511719 123.25 222.65625 125.09375 220.773438 126.902344 " fill-opacity="1" fill-rule="nonzero"/><path fill="#ebd5aa" d="M 225.277344 142.753906 C 225.476562 142.96875 225.671875 143.1875 225.871094 143.398438 C 226.914062 144.496094 227.996094 145.582031 229.101562 146.539062 C 230.203125 145.464844 231.316406 144.402344 232.417969 143.328125 C 231.128906 141.964844 229.996094 140.585938 228.886719 139.1875 C 227.703125 140.394531 226.496094 141.582031 225.277344 142.753906 " fill-opacity="1" fill-rule="nonzero"/><path fill="#ebd5aa" d="M 229.527344 126.390625 C 228.066406 128.257812 226.539062 130.066406 224.964844 131.824219 C 226.234375 133.292969 227.515625 134.753906 228.820312 136.1875 C 229.414062 135.652344 230 135.109375 230.605469 134.582031 C 231.550781 133.75 232.511719 132.929688 233.476562 132.109375 C 232.722656 131.078125 231.976562 130.039062 231.25 128.988281 C 230.664062 128.128906 230.101562 127.257812 229.527344 126.390625 " fill-opacity="1" fill-rule="nonzero"/><path fill="#ebd5aa" d="M 223.988281 143.945312 C 222.675781 145.15625 221.339844 146.347656 219.984375 147.511719 C 220.644531 148.296875 221.308594 149.078125 221.992188 149.828125 C 222.585938 150.476562 223.195312 151.113281 223.8125 151.699219 C 225.019531 150.519531 226.222656 149.339844 227.429688 148.167969 C 226.347656 147.003906 225.402344 145.808594 224.46875 144.589844 C 224.304688 144.378906 224.148438 144.164062 223.988281 143.945312 " fill-opacity="1" fill-rule="nonzero"/><path fill="#ebd5aa" d="M 219.539062 137.582031 C 218.15625 138.996094 216.757812 140.394531 215.339844 141.769531 C 216.410156 143.140625 217.492188 144.503906 218.59375 145.847656 C 219.902344 144.546875 221.21875 143.257812 222.546875 141.984375 C 222.054688 141.292969 221.5625 140.597656 221.078125 139.898438 C 220.554688 139.132812 220.050781 138.355469 219.539062 137.582031 " fill-opacity="1" fill-rule="nonzero"/><path fill="#ebd5aa" d="M 222.179688 134.863281 C 221.53125 135.558594 220.855469 136.226562 220.195312 136.910156 C 220.8125 137.65625 221.421875 138.414062 222.054688 139.148438 C 222.574219 139.753906 223.101562 140.351562 223.628906 140.949219 C 224.90625 139.757812 226.1875 138.570312 227.476562 137.394531 C 226.308594 135.894531 225.167969 134.378906 224.035156 132.859375 C 223.421875 133.53125 222.804688 134.199219 222.179688 134.863281 " fill-opacity="1" fill-rule="nonzero"/><path fill="#ebd5aa" d="M 156.515625 173.109375 C 153.878906 176.425781 151.085938 179.609375 148.257812 182.757812 C 145.390625 185.871094 142.484375 188.941406 139.46875 191.910156 C 136.464844 194.890625 133.390625 197.796875 130.148438 200.558594 C 132.640625 197.101562 135.324219 193.828125 138.0625 190.605469 C 140.789062 187.375 143.613281 184.238281 146.441406 181.105469 C 149.296875 178 152.15625 174.898438 155.078125 171.851562 C 157.984375 168.792969 160.914062 165.761719 163.914062 162.746094 C 161.714844 166.390625 159.160156 169.796875 156.515625 173.109375 Z M 132.214844 189.402344 C 135.65625 184.875 139.203125 180.429688 142.796875 176.023438 C 146.429688 171.644531 150.101562 167.292969 153.945312 163.085938 L 156.851562 159.953125 L 159.835938 156.886719 C 161.894531 154.90625 163.921875 152.871094 166.242188 151.195312 C 162.40625 155.402344 158.980469 159.917969 155.398438 164.328125 C 151.867188 168.773438 148.285156 173.179688 144.695312 177.582031 C 141.070312 181.953125 137.445312 186.332031 133.699219 190.613281 C 131.242188 193.4375 128.75 196.238281 126.179688 198.96875 C 127.957031 202.699219 130.089844 206.261719 132.414062 209.648438 C 135.71875 214.433594 139.457031 218.898438 143.476562 223.082031 C 145.742188 220.441406 148.066406 217.851562 150.421875 215.292969 C 154.484375 210.859375 158.671875 206.542969 162.882812 202.253906 C 167.128906 198 171.402344 193.769531 175.773438 189.644531 C 180.132812 185.503906 184.554688 181.429688 189.128906 177.496094 C 185.28125 182.140625 181.234375 186.59375 177.128906 190.988281 C 173.035156 195.394531 168.839844 199.695312 164.628906 203.980469 C 160.386719 208.238281 156.132812 212.476562 151.792969 216.632812 C 149.285156 219.054688 146.75 221.449219 144.195312 223.824219 C 145.371094 225.03125 146.570312 226.210938 147.789062 227.367188 L 158.792969 216.207031 L 176.097656 198.832031 C 182.710938 192.183594 189.367188 185.578125 196.035156 178.984375 C 190.292969 172.585938 184.984375 165.808594 180.257812 158.652344 C 177.894531 155.050781 175.679688 151.351562 173.71875 147.519531 C 172.210938 144.558594 170.855469 141.515625 169.765625 138.378906 L 124.050781 193.933594 C 124.5625 195.339844 125.148438 196.714844 125.769531 198.070312 C 127.886719 195.15625 130.027344 192.261719 132.214844 189.402344 " fill-opacity="1" fill-rule="nonzero"/><path fill="#ebd5aa" d="M 126.402344 207.601562 C 125.832031 208.15625 124.921875 208.140625 124.367188 207.570312 C 123.816406 207 123.828125 206.089844 124.402344 205.535156 C 124.972656 204.984375 125.882812 205 126.4375 205.570312 C 126.988281 206.140625 126.972656 207.050781 126.402344 207.601562 Z M 131.457031 217.96875 C 132.027344 217.414062 132.9375 217.429688 133.492188 218 C 134.042969 218.574219 134.03125 219.480469 133.457031 220.035156 C 132.886719 220.585938 131.976562 220.574219 131.421875 220.003906 C 130.871094 219.429688 130.886719 218.519531 131.457031 217.96875 Z M 148.03125 232.003906 C 147.3125 231.269531 146.582031 230.550781 145.882812 229.800781 C 144.453125 231.101562 143.019531 232.394531 141.570312 233.671875 L 145.640625 229.542969 C 144.46875 228.277344 143.316406 226.984375 142.191406 225.675781 C 141.003906 226.777344 139.820312 227.878906 138.621094 228.972656 C 139.632812 227.675781 140.671875 226.398438 141.726562 225.140625 C 137.8125 220.53125 134.226562 215.652344 131.125 210.480469 C 129.039062 206.984375 127.148438 203.339844 125.617188 199.570312 C 124.46875 200.785156 123.300781 201.988281 122.109375 203.167969 C 123.15625 201.671875 124.230469 200.203125 125.296875 198.726562 C 124.730469 197.265625 124.207031 195.789062 123.757812 194.289062 L 118.976562 200.097656 C 122.007812 209.714844 128.027344 224.234375 139.019531 235.589844 C 139.753906 236.351562 140.511719 237.085938 141.277344 237.804688 L 141.269531 237.796875 C 141.460938 237.613281 143.902344 235.539062 148.03125 232.003906 " fill-opacity="1" fill-rule="nonzero"/><path fill="#d22734" d="M 261.65625 113.167969 C 260.132812 111.597656 258.789062 109.917969 257.597656 108.164062 C 256.605469 108.980469 255.597656 109.78125 254.585938 110.574219 C 255.925781 112.9375 257.558594 115.183594 259.460938 117.273438 L 262.6875 114.179688 C 262.339844 113.847656 261.992188 113.515625 261.65625 113.167969 " fill-opacity="1" fill-rule="nonzero"/><path fill="#d22734" d="M 251.945312 79.808594 C 248.480469 89.507812 249.175781 100.371094 254.078125 109.628906 C 254.953125 108.6875 255.835938 107.75 256.730469 106.824219 C 251.675781 98.644531 250.089844 88.941406 251.945312 79.808594 " fill-opacity="1" fill-rule="nonzero"/><path fill="#d22734" d="M 269.625 119.414062 C 267.507812 118.175781 265.492188 116.710938 263.601562 115.023438 L 260.402344 118.273438 C 262.1875 120.089844 264.113281 121.6875 266.144531 123.058594 C 267.320312 121.835938 268.480469 120.621094 269.625 119.414062 " fill-opacity="1" fill-rule="nonzero"/><path fill="#d22734" d="M 315.707031 58.554688 C 315.394531 59.203125 315.039062 59.820312 314.652344 60.414062 C 316.089844 61.832031 317.554688 63.21875 319.039062 64.578125 C 320.628906 62.917969 322.234375 61.261719 323.882812 59.625 C 321.390625 57.003906 319.007812 54.289062 316.714844 51.511719 C 315.597656 53.960938 314.425781 56.441406 313.183594 58.960938 C 313.480469 59.261719 313.785156 59.558594 314.085938 59.855469 C 314.609375 59.414062 315.148438 58.976562 315.707031 58.554688 " fill-opacity="1" fill-rule="nonzero"/><path fill="#d22734" d="M 320.023438 65.484375 C 321.042969 66.398438 322.078125 67.300781 323.117188 68.191406 L 326.039062 64.476562 C 326.429688 63.988281 326.824219 63.5 327.214844 63.007812 C 327.089844 62.886719 326.957031 62.765625 326.835938 62.640625 C 325.855469 61.671875 324.898438 60.683594 323.949219 59.691406 C 322.878906 61.617188 321.625 63.425781 320.289062 65.164062 C 320.203125 65.273438 320.109375 65.375 320.023438 65.484375 " fill-opacity="1" fill-rule="nonzero"/><path fill="#d22734" d="M 313.078125 59.164062 L 313.015625 59.289062 C 313.195312 59.449219 313.378906 59.605469 313.558594 59.769531 C 313.398438 59.566406 313.238281 59.367188 313.078125 59.164062 " fill-opacity="1" fill-rule="nonzero"/><path fill="#d22734" d="M 333.398438 76.328125 C 334.40625 77.054688 335.425781 77.765625 336.453125 78.464844 C 337.332031 76.785156 338.222656 75.0625 339.097656 73.347656 C 338.113281 72.597656 337.136719 71.835938 336.175781 71.054688 C 335.265625 72.816406 334.347656 74.582031 333.398438 76.328125 " fill-opacity="1" fill-rule="nonzero"/><path fill="#d22734" d="M 332.289062 57.332031 C 331.625 58.707031 330.914062 60.054688 330.160156 61.378906 C 332.636719 63.390625 335.183594 65.308594 337.796875 67.117188 C 338.347656 66.070312 338.890625 65.011719 339.429688 63.957031 C 336.910156 61.875 334.542969 59.652344 332.289062 57.332031 " fill-opacity="1" fill-rule="nonzero"/><path fill="#d22734" d="M 328.902344 60.367188 L 329.15625 60.574219 C 330.105469 59.40625 331.070312 58.242188 332.046875 57.078125 C 330.515625 55.492188 329.019531 53.867188 327.597656 52.191406 C 325.058594 49.175781 322.695312 46.027344 320.519531 42.757812 C 319.566406 45.066406 318.566406 47.410156 317.5 49.792969 C 321.128906 53.515625 324.925781 57.058594 328.902344 60.367188 " fill-opacity="1" fill-rule="nonzero"/><path fill="#d22734" d="M 324.855469 69.667969 C 326.800781 71.292969 328.777344 72.886719 330.796875 74.410156 C 331.503906 74.941406 332.222656 75.46875 332.9375 75.992188 C 333.925781 74.265625 334.886719 72.519531 335.839844 70.769531 C 333.289062 68.675781 330.835938 66.480469 328.46875 64.207031 C 328.179688 64.671875 327.894531 65.136719 327.601562 65.59375 C 326.722656 66.976562 325.796875 68.332031 324.855469 69.667969 " fill-opacity="1" fill-rule="nonzero"/><path fill="#d22734" d="M 328.183594 42.089844 C 327.269531 42.976562 325.8125 42.949219 324.929688 42.039062 C 324.046875 41.125 324.074219 39.671875 324.984375 38.789062 C 325.898438 37.90625 327.355469 37.929688 328.238281 38.84375 C 329.121094 39.753906 329.097656 41.210938 328.183594 42.089844 Z M 332.398438 47.003906 C 333.3125 46.121094 334.769531 46.144531 335.652344 47.054688 C 336.535156 47.96875 336.507812 49.421875 335.597656 50.304688 C 334.683594 51.1875 333.226562 51.164062 332.34375 50.25 C 331.460938 49.339844 331.484375 47.882812 332.398438 47.003906 Z M 341.503906 59.839844 C 341.765625 59.304688 342.023438 58.765625 342.28125 58.226562 C 341.636719 58.261719 340.984375 58.039062 340.503906 57.542969 C 339.621094 56.628906 339.644531 55.175781 340.558594 54.289062 C 341.46875 53.40625 342.929688 53.433594 343.808594 54.34375 L 344.023438 54.613281 C 344.164062 54.316406 344.3125 54.023438 344.449219 53.726562 C 344.316406 54.03125 344.171875 54.328125 344.035156 54.632812 C 344.671875 55.539062 344.582031 56.800781 343.757812 57.597656 C 343.375 57.964844 342.898438 58.164062 342.40625 58.21875 C 342.148438 58.789062 341.894531 59.363281 341.632812 59.929688 C 341.949219 60.152344 342.261719 60.390625 342.582031 60.609375 C 343.320312 61.101562 344.0625 61.570312 344.8125 62.03125 C 346.734375 58.175781 348.015625 55.558594 348.015625 55.558594 L 348.015625 55.5625 C 344.554688 53.09375 340.667969 49.824219 336.449219 45.460938 C 331.136719 39.976562 327.523438 35.070312 325.0625 30.914062 C 323.945312 34.070312 322.734375 37.308594 321.390625 40.644531 C 324.011719 43.984375 326.851562 47.136719 329.855469 50.105469 C 333.488281 53.675781 337.386719 56.960938 341.503906 59.839844 " fill-opacity="1" fill-rule="nonzero"/><path fill="#d22734" d="M 339.632812 64.132812 C 339.117188 65.195312 338.601562 66.253906 338.074219 67.3125 C 339.085938 68.007812 340.109375 68.6875 341.140625 69.34375 C 341.644531 68.351562 342.132812 67.378906 342.609375 66.4375 C 341.667969 65.746094 340.738281 65.035156 339.835938 64.304688 L 339.632812 64.132812 " fill-opacity="1" fill-rule="nonzero"/><path fill="#d22734" d="M 320.125 67.679688 C 320.632812 68.5 321.109375 69.335938 321.546875 70.183594 L 321.953125 69.667969 C 321.34375 69.003906 320.722656 68.355469 320.125 67.679688 " fill-opacity="1" fill-rule="nonzero"/><path fill="#d22734" d="M 326.117188 88.878906 C 327.199219 89.671875 328.292969 90.449219 329.394531 91.210938 L 329.546875 90.976562 C 329.957031 90.316406 330.414062 89.539062 330.90625 88.6875 C 329.851562 87.855469 328.808594 87.003906 327.785156 86.140625 C 327.234375 87.058594 326.675781 87.964844 326.117188 88.878906 " fill-opacity="1" fill-rule="nonzero"/><path fill="#d22734" d="M 331.175781 78.984375 C 330.375 78.246094 329.582031 77.5 328.796875 76.742188 C 327.007812 75.015625 325.277344 73.234375 323.574219 71.433594 C 323.28125 71.832031 322.992188 72.234375 322.695312 72.628906 C 323.550781 74.636719 324.226562 76.703125 324.714844 78.804688 C 326.199219 79.984375 327.714844 81.113281 329.246094 82.21875 C 329.898438 81.148438 330.539062 80.070312 331.175781 78.984375 " fill-opacity="1" fill-rule="nonzero"/><path fill="#d22734" d="M 329.84375 82.640625 C 330.902344 83.394531 331.976562 84.128906 333.054688 84.84375 C 333.546875 83.941406 334.054688 83.003906 334.574219 82.027344 C 333.589844 81.171875 332.621094 80.308594 331.660156 79.429688 C 331.058594 80.503906 330.457031 81.574219 329.84375 82.640625 " fill-opacity="1" fill-rule="nonzero"/><path fill="#d22734" d="M 323.742188 99.144531 C 323.851562 99.230469 323.964844 99.304688 324.078125 99.390625 C 325.160156 97.78125 326.222656 96.15625 327.273438 94.523438 C 326.601562 93.925781 325.9375 93.324219 325.277344 92.71875 C 324.957031 94.894531 324.445312 97.042969 323.742188 99.144531 " fill-opacity="1" fill-rule="nonzero"/><path fill="#d22734" d="M 325.5625 84.234375 C 325.660156 85.457031 325.699219 86.6875 325.679688 87.914062 C 326.171875 87.144531 326.667969 86.378906 327.15625 85.605469 C 326.621094 85.148438 326.085938 84.699219 325.5625 84.234375 " fill-opacity="1" fill-rule="nonzero"/><path fill="#d22734" d="M 261.207031 128.152344 L 261.285156 128.222656 C 262.679688 126.734375 264.101562 125.269531 265.535156 123.816406 C 266.949219 122.371094 268.390625 120.949219 269.835938 119.535156 L 269.625 119.414062 C 268.480469 120.621094 267.320312 121.835938 266.144531 123.058594 C 264.527344 124.746094 262.882812 126.441406 261.207031 128.152344 " fill-opacity="1" fill-rule="nonzero"/><path fill="#d22734" d="M 278.207031 146.945312 C 272.886719 152.167969 267.488281 157.3125 262.054688 162.417969 C 261.1875 163.234375 260.308594 164.03125 259.4375 164.839844 C 260.65625 165.703125 261.882812 166.554688 263.117188 167.390625 C 265.050781 165.585938 266.988281 163.785156 268.917969 161.976562 C 273.363281 157.804688 277.796875 153.613281 282.164062 149.355469 C 281.265625 148.851562 280.386719 148.332031 279.519531 147.796875 C 279.074219 147.519531 278.644531 147.226562 278.207031 146.945312 " fill-opacity="1" fill-rule="nonzero"/><path fill="#d22734" d="M 238.6875 164.152344 C 238.125 163.410156 237.554688 162.671875 237 161.925781 C 237.660156 162.589844 238.328125 163.242188 238.992188 163.898438 C 241.699219 161.660156 244.402344 159.421875 247.09375 157.164062 C 244.65625 154.53125 242.332031 151.804688 240.136719 148.988281 C 230.839844 157.945312 221.246094 166.917969 211.855469 175.53125 C 213.890625 177.128906 215.957031 178.675781 218.058594 180.175781 C 218.226562 180.296875 218.40625 180.414062 218.574219 180.535156 L 224.804688 175.515625 C 222.996094 173.449219 221.246094 171.332031 219.589844 169.15625 C 221.523438 171.140625 223.535156 173.042969 225.59375 174.882812 L 225.871094 174.660156 C 230.15625 171.175781 234.429688 167.667969 238.6875 164.152344 " fill-opacity="1" fill-rule="nonzero"/><path fill="#d22734" d="M 249.707031 173.832031 C 250.761719 174.734375 251.816406 175.636719 252.894531 176.5 L 253.136719 176.6875 C 255.550781 174.449219 257.964844 172.203125 260.371094 169.960938 C 259.261719 168.988281 258.160156 168.015625 257.074219 167.023438 C 254.621094 169.296875 252.175781 171.578125 249.707031 173.832031 " fill-opacity="1" fill-rule="nonzero"/><path fill="#d22734" d="M 241.871094 168.261719 C 238.03125 171.828125 234.183594 175.378906 230.316406 178.914062 C 231.738281 180.074219 233.183594 181.207031 234.644531 182.316406 C 238.308594 179.167969 241.957031 176.003906 245.597656 172.832031 C 244.332031 171.324219 243.089844 169.800781 241.871094 168.261719 " fill-opacity="1" fill-rule="nonzero"/><path fill="#d22734" d="M 247.878906 175.496094 C 244.523438 178.554688 241.160156 181.601562 237.785156 184.640625 C 238.101562 184.867188 238.414062 185.101562 238.730469 185.324219 C 239.679688 186.007812 240.652344 186.660156 241.613281 187.324219 C 244.699219 184.492188 247.777344 181.648438 250.851562 178.800781 L 250.800781 178.75 C 249.800781 177.679688 248.835938 176.589844 247.878906 175.496094 " fill-opacity="1" fill-rule="nonzero"/><path fill="#d22734" d="M 247.089844 171.539062 C 249.636719 169.3125 252.160156 167.0625 254.691406 164.820312 C 253.175781 163.394531 251.6875 161.9375 250.230469 160.453125 C 247.726562 162.8125 245.214844 165.152344 242.699219 167.492188 C 244.144531 168.867188 245.609375 170.214844 247.089844 171.539062 " fill-opacity="1" fill-rule="nonzero"/><path fill="#d22734" d="M 275.640625 135.671875 C 275.996094 135.6875 276.347656 135.828125 276.613281 136.105469 C 277.164062 136.675781 277.152344 137.585938 276.578125 138.136719 C 276.007812 138.6875 275.097656 138.675781 274.542969 138.105469 C 274.292969 137.84375 274.175781 137.511719 274.15625 137.179688 C 273.957031 137.378906 273.761719 137.582031 273.5625 137.78125 C 275.628906 139.207031 277.734375 140.566406 279.878906 141.824219 C 281.617188 140.164062 283.355469 138.5 285.070312 136.816406 C 287.140625 134.847656 289.121094 132.792969 291.152344 130.785156 C 293.1875 128.785156 295.160156 126.726562 297.121094 124.65625 C 297.601562 124.144531 298.078125 123.625 298.558594 123.105469 C 295.253906 124.03125 291.847656 124.5 288.445312 124.5 C 287.78125 124.5 287.121094 124.476562 286.460938 124.441406 C 282.902344 128.230469 279.289062 131.96875 275.640625 135.671875 " fill-opacity="1" fill-rule="nonzero"/><path fill="#d22734" d="M 209.101562 181.667969 C 209.65625 182.238281 209.640625 183.148438 209.070312 183.699219 C 208.496094 184.253906 207.585938 184.238281 207.035156 183.667969 C 206.480469 183.097656 206.496094 182.183594 207.070312 181.632812 C 207.640625 181.082031 208.550781 181.097656 209.101562 181.667969 Z M 209.941406 187.488281 L 216.09375 182.535156 C 214.117188 180.722656 212.183594 178.863281 210.292969 176.964844 C 208.253906 178.832031 206.226562 180.683594 204.210938 182.511719 C 206.089844 184.210938 207.996094 185.878906 209.941406 187.488281 " fill-opacity="1" fill-rule="nonzero"/><path fill="#d22734" d="M 169.9375 250 C 169.101562 249.476562 168.277344 248.9375 167.460938 248.386719 C 165.871094 249.894531 164.28125 251.414062 162.6875 252.945312 C 163.441406 253.339844 164.199219 253.726562 164.964844 254.105469 C 166.628906 252.75 168.277344 251.367188 169.9375 250 " fill-opacity="1" fill-rule="nonzero"/><path fill="#d22734" d="M 218.960938 191.851562 C 219.53125 191.296875 220.441406 191.3125 220.992188 191.882812 C 221.546875 192.453125 221.53125 193.363281 220.960938 193.917969 C 220.390625 194.46875 219.476562 194.453125 218.925781 193.882812 C 218.371094 193.3125 218.386719 192.402344 218.960938 191.851562 Z M 217.644531 193.449219 C 218.371094 193.972656 219.105469 194.484375 219.84375 194.992188 C 221.621094 193.476562 223.390625 191.953125 225.167969 190.4375 C 223.855469 189.34375 222.554688 188.238281 221.261719 187.121094 L 215.785156 192.082031 C 216.402344 192.542969 217.019531 193.003906 217.644531 193.449219 " fill-opacity="1" fill-rule="nonzero"/><path fill="#d22734" d="M 163.507812 240.109375 C 164.332031 240.671875 165.160156 241.222656 165.992188 241.761719 C 179.84375 229.285156 193.933594 217.109375 208.082031 205.03125 C 210.769531 202.734375 213.460938 200.441406 216.148438 198.144531 C 215.710938 197.800781 215.269531 197.457031 214.839844 197.105469 C 214.03125 196.449219 213.261719 195.757812 212.46875 195.085938 L 190.589844 214.90625 C 180.996094 223.648438 172.34375 231.59375 163.507812 240.109375 " fill-opacity="1" fill-rule="nonzero"/><path fill="#d22734" d="M 266.832031 125.214844 C 265.316406 126.507812 263.78125 127.78125 262.21875 129.023438 C 263.597656 130.199219 264.996094 131.351562 266.414062 132.480469 C 266.53125 132.363281 266.648438 132.25 266.765625 132.136719 L 266.757812 132.128906 C 266.203125 131.558594 266.222656 130.648438 266.789062 130.09375 C 267.363281 129.542969 268.273438 129.558594 268.824219 130.128906 L 268.851562 130.167969 C 271.453125 127.734375 274.066406 125.308594 276.734375 122.945312 L 277.007812 122.703125 C 275.300781 122.15625 273.625 121.484375 271.992188 120.6875 C 270.300781 122.222656 268.585938 123.738281 266.832031 125.214844 " fill-opacity="1" fill-rule="nonzero"/><path fill="#d22734" d="M 211.117188 208.503906 C 197.316406 220.828125 184.316406 232.511719 171.15625 244.898438 C 172.148438 245.457031 173.144531 246.007812 174.148438 246.527344 C 190.960938 232.578125 207.429688 218.226562 223.675781 203.613281 C 222.320312 202.722656 220.988281 201.800781 219.6875 200.847656 C 216.828125 203.398438 213.972656 205.949219 211.117188 208.503906 " fill-opacity="1" fill-rule="nonzero"/><path fill="#d22734" d="M 228.742188 187.378906 C 230.085938 186.222656 231.4375 185.070312 232.785156 183.917969 C 231.503906 182.667969 230.242188 181.394531 229.007812 180.105469 L 224.238281 184.421875 C 225.730469 185.417969 227.230469 186.40625 228.742188 187.378906 " fill-opacity="1" fill-rule="nonzero"/><path fill="#d22734" d="M 235.605469 186.601562 C 234.484375 187.609375 233.363281 188.609375 232.246094 189.613281 C 233.589844 190.46875 234.941406 191.328125 236.296875 192.183594 C 237.203125 191.355469 238.113281 190.523438 239.019531 189.695312 C 238.277344 189.03125 237.527344 188.382812 236.792969 187.710938 C 236.394531 187.34375 236 186.972656 235.605469 186.601562 " fill-opacity="1" fill-rule="nonzero"/><path fill="#d22734" d="M 154.222656 233.078125 C 164.230469 224.5 174.394531 216.171875 184.585938 207.917969 L 206.808594 190.015625 C 205.03125 188.339844 203.289062 186.636719 201.585938 184.890625 C 180.402344 204.070312 161.308594 220.605469 150.511719 229.875 C 151.730469 230.96875 152.96875 232.03125 154.222656 233.078125 " fill-opacity="1" fill-rule="nonzero"/><path fill="#d22734" d="M 250.21875 149.140625 C 252.941406 145.976562 255.808594 142.980469 258.71875 140.03125 C 260.253906 138.464844 261.8125 136.925781 263.382812 135.398438 C 261.933594 134.09375 260.503906 132.769531 259.105469 131.414062 C 258.421875 131.925781 257.734375 132.433594 257.035156 132.929688 C 257.589844 132.285156 258.148438 131.652344 258.714844 131.023438 L 258.542969 130.851562 C 252.683594 136.777344 246.53125 142.828125 240.238281 148.886719 C 242.796875 151.453125 245.457031 153.894531 248.210938 156.21875 C 254.324219 151.078125 260.394531 145.890625 266.390625 140.609375 C 266.890625 140.167969 267.386719 139.722656 267.882812 139.28125 C 266.960938 138.511719 266.046875 137.726562 265.136719 136.9375 C 263.457031 138.457031 261.753906 139.964844 260.019531 141.433594 C 256.859375 144.117188 253.625 146.730469 250.21875 149.140625 " fill-opacity="1" fill-rule="nonzero"/><path fill="#d22734" d="M 162.570312 244.871094 C 161.828125 244.304688 161.09375 243.738281 160.363281 243.160156 C 158.5625 244.917969 156.746094 246.703125 154.90625 248.53125 C 155.621094 248.96875 156.34375 249.410156 157.085938 249.84375 C 158.90625 248.175781 160.742188 246.527344 162.570312 244.871094 " fill-opacity="1" fill-rule="nonzero"/><path fill="#d22734" d="M 223.535156 197.410156 C 224.933594 198.289062 226.351562 199.128906 227.785156 199.917969 C 229.195312 198.644531 230.609375 197.371094 232.015625 196.089844 C 230.796875 195.09375 229.582031 194.09375 228.363281 193.089844 C 226.75 194.527344 225.148438 195.972656 223.535156 197.410156 " fill-opacity="1" fill-rule="nonzero"/><path fill="#d22734" d="M 251.6875 159.066406 C 253.367188 160.398438 255.074219 161.691406 256.800781 162.957031 C 257.855469 162.019531 258.925781 161.09375 259.976562 160.152344 C 265.363281 155.308594 270.71875 150.429688 276.003906 145.476562 C 274.007812 144.097656 272.070312 142.652344 270.183594 141.160156 C 269.617188 141.722656 269.054688 142.289062 268.488281 142.851562 C 262.957031 148.324219 257.34375 153.714844 251.6875 159.066406 " fill-opacity="1" fill-rule="nonzero"/><path fill="#d22734" d="M 151.503906 235.441406 C 150.324219 234.316406 149.167969 233.167969 148.03125 232.003906 C 143.902344 235.539062 141.460938 237.613281 141.269531 237.796875 L 141.277344 237.804688 C 142.058594 238.828125 143.25 240.023438 144.769531 241.320312 C 147.003906 239.34375 149.25 237.390625 151.503906 235.441406 " fill-opacity="1" fill-rule="nonzero"/><path fill="#d22734" d="M 353.203125 11.46875 L 353.234375 11.46875 C 361.660156 11.371094 367.175781 12.433594 368.828125 13.871094 L 368.746094 13.761719 C 366.285156 11.214844 351.746094 9.828125 330.335938 13.863281 L 330.332031 13.871094 C 337.597656 12.546875 344.074219 11.839844 349.566406 11.582031 C 350.800781 11.496094 352.019531 11.453125 353.203125 11.46875 " fill-opacity="1" fill-rule="nonzero"/><path fill="#d22734" d="M 364.578125 63.039062 L 364.585938 63.007812 L 364.480469 62.996094 L 364.578125 63.039062 " fill-opacity="1" fill-rule="nonzero"/><path fill="#d22734" d="M 269.28125 133.125 C 268.972656 133.414062 268.65625 133.695312 268.347656 133.980469 C 269.335938 134.738281 270.332031 135.484375 271.335938 136.210938 C 275.71875 132.285156 280.058594 128.304688 284.339844 124.265625 C 282.550781 124.070312 280.773438 123.746094 279.023438 123.292969 C 278.707031 123.632812 278.390625 123.980469 278.074219 124.316406 C 275.238281 127.351562 272.273438 130.257812 269.28125 133.125 " fill-opacity="1" fill-rule="nonzero"/><path fill="#d22734" d="M 302.082031 121.925781 C 300.914062 123.28125 299.734375 124.628906 298.539062 125.960938 C 296.609375 128.09375 294.667969 130.210938 292.671875 132.261719 C 290.679688 134.324219 288.734375 136.429688 286.703125 138.453125 C 286.035156 139.136719 285.355469 139.804688 284.683594 140.484375 C 284.792969 140.550781 284.910156 140.609375 285 140.707031 C 285.554688 141.273438 285.539062 142.1875 284.96875 142.738281 C 284.398438 143.289062 283.488281 143.273438 282.933594 142.707031 L 282.753906 142.429688 C 282.539062 142.648438 282.324219 142.867188 282.105469 143.085938 L 282.21875 143.152344 C 283.589844 143.886719 284.972656 144.574219 286.371094 145.203125 C 288.570312 143 290.75 140.777344 292.890625 138.515625 C 299.582031 131.328125 305.949219 123.878906 311.960938 116.148438 C 308.921875 118.625 305.585938 120.554688 302.082031 121.925781 " fill-opacity="1" fill-rule="nonzero"/><path fill="#488ca5" d="M 367.191406 17.03125 C 365.933594 18.089844 365.386719 21.238281 364.742188 22.75 C 363.890625 24.746094 362.957031 26.707031 361.957031 28.636719 C 357.925781 36.398438 351.945312 44.277344 345.792969 50.496094 C 354.191406 57.914062 363.808594 60.289062 363.808594 60.289062 C 363.808594 60.289062 368.078125 45.601562 369.453125 37.550781 C 370.21875 33.050781 370.796875 28.5 370.78125 23.929688 C 370.773438 22.46875 370.8125 13.964844 367.191406 17.03125 " fill-opacity="1" fill-rule="nonzero"/><path fill="#ebd5aa" d="M 353.203125 11.46875 C 352.019531 11.449219 350.800781 11.496094 349.566406 11.582031 C 346.078125 11.816406 342.464844 12.390625 339.148438 12.890625 C 334.164062 13.640625 329.253906 14.867188 324.507812 16.566406 C 324.121094 16.707031 323.714844 16.859375 323.4375 17.164062 C 322.882812 17.753906 322.992188 18.699219 323.261719 19.460938 C 323.53125 20.226562 323.859375 21.796875 323.859375 21.796875 C 323.859375 21.796875 329.035156 20.832031 331.558594 20.074219 C 336.398438 18.617188 341.308594 17.410156 346.265625 16.445312 C 348.71875 15.972656 351.183594 15.554688 353.65625 15.203125 C 354.863281 15.027344 356.074219 14.871094 357.289062 14.726562 C 358.324219 14.605469 363.847656 14.183594 364.730469 13.707031 C 366.328125 12.847656 357.839844 11.542969 353.234375 11.46875 L 353.203125 11.46875 " fill-opacity="1" fill-rule="nonzero"/><path fill="#488ca5" d="M 344.109375 48.761719 C 354.070312 37.21875 361.703125 28.210938 364.753906 17.4375 C 361.132812 25.207031 346.5625 41.429688 341.582031 46.148438 C 342.1875 47.007812 343.507812 48.242188 344.109375 48.761719 " fill-opacity="1" fill-rule="nonzero"/><path fill="#488ca5" d="M 315.214844 23.460938 C 316.171875 22.128906 318.332031 22.183594 317.898438 21.738281 C 317.148438 20.960938 315.910156 20.941406 315.132812 21.691406 C 314.265625 22.53125 314.792969 24.054688 315.214844 23.460938 " fill-opacity="1" fill-rule="nonzero"/><path fill="#488ca5" d="M 319.027344 31.964844 C 319.976562 30.628906 322.140625 30.683594 321.710938 30.238281 C 320.960938 29.464844 319.71875 29.441406 318.945312 30.191406 C 318.078125 31.03125 318.601562 32.554688 319.027344 31.964844 " fill-opacity="1" fill-rule="nonzero"/><path fill="#488ca5" d="M 325.300781 39.171875 C 324.433594 40.011719 324.957031 41.535156 325.382812 40.945312 C 326.335938 39.609375 328.496094 39.664062 328.066406 39.21875 C 327.316406 38.445312 326.078125 38.421875 325.300781 39.171875 " fill-opacity="1" fill-rule="nonzero"/><path fill="#488ca5" d="M 332.792969 49.160156 C 333.746094 47.824219 335.910156 47.878906 335.480469 47.433594 C 334.726562 46.65625 333.492188 46.636719 332.714844 47.386719 C 331.847656 48.226562 332.375 49.75 332.792969 49.160156 " fill-opacity="1" fill-rule="nonzero"/><path fill="#488ca5" d="M 343.640625 54.722656 C 342.890625 53.945312 341.652344 53.925781 340.875 54.675781 C 340.007812 55.515625 340.535156 57.039062 340.957031 56.445312 C 341.910156 55.113281 344.070312 55.167969 343.640625 54.722656 " fill-opacity="1" fill-rule="nonzero"/><path fill="#e08326" d="M 320.273438 88.539062 C 319.988281 96.886719 316.28125 105.039062 310.167969 110.796875 C 307.121094 113.671875 303.523438 115.996094 299.582031 117.519531 C 295.648438 119.058594 291.394531 119.800781 287.144531 119.714844 C 278.632812 119.558594 270.167969 115.882812 264.230469 109.609375 C 261.28125 106.46875 258.921875 102.75 257.40625 98.695312 C 255.890625 94.636719 255.191406 90.28125 255.339844 85.949219 C 255.535156 81.625 256.578125 77.335938 258.410156 73.414062 C 260.242188 69.488281 262.894531 65.96875 266.085938 63.074219 C 272.503906 57.285156 281.234375 54.300781 289.734375 54.820312 C 293.976562 55.074219 298.160156 56.15625 301.960938 58 C 305.765625 59.832031 309.167969 62.4375 311.976562 65.546875 C 317.605469 71.773438 320.652344 80.199219 320.273438 88.539062 Z M 288.433594 52.5 C 279.710938 52.5 270.984375 55.742188 264.238281 62.269531 C 250.441406 75.605469 250.078125 97.671875 263.421875 111.460938 C 276.765625 125.246094 298.847656 125.613281 312.636719 112.273438 C 326.433594 98.9375 326.796875 76.867188 313.453125 63.082031 C 306.636719 56.039062 297.539062 52.5 288.433594 52.5 " fill-opacity="1" fill-rule="nonzero"/><path fill="#e08326" d="M 305.523438 104.925781 C 295.769531 114.355469 280.210938 114.097656 270.777344 104.347656 C 261.339844 94.597656 261.597656 79.046875 271.351562 69.617188 C 281.105469 60.1875 296.664062 60.445312 306.097656 70.191406 C 315.535156 79.945312 315.277344 95.492188 305.523438 104.925781 Z M 306.476562 108.402344 C 305.75 107.652344 305.769531 106.460938 306.523438 105.734375 C 307.269531 105.011719 308.464844 105.03125 309.191406 105.78125 C 309.914062 106.527344 309.894531 107.722656 309.148438 108.445312 C 308.398438 109.171875 307.203125 109.152344 306.476562 108.402344 Z M 288.054688 116.773438 C 287.015625 116.753906 286.183594 115.898438 286.199219 114.855469 C 286.214844 113.8125 287.074219 112.980469 288.117188 113 C 289.160156 113.015625 289.992188 113.875 289.976562 114.917969 C 289.957031 115.960938 289.097656 116.789062 288.054688 116.773438 Z M 267.253906 107.753906 C 266.527344 107.003906 266.546875 105.808594 267.296875 105.085938 C 268.046875 104.359375 269.242188 104.378906 269.96875 105.128906 C 270.691406 105.878906 270.671875 107.074219 269.921875 107.796875 C 269.171875 108.523438 267.976562 108.503906 267.253906 107.753906 Z M 258.921875 86.675781 C 258.941406 85.632812 259.796875 84.800781 260.84375 84.820312 C 261.886719 84.835938 262.714844 85.695312 262.699219 86.738281 C 262.679688 87.78125 261.824219 88.609375 260.78125 88.59375 C 259.734375 88.574219 258.90625 87.714844 258.921875 86.675781 Z M 267.945312 65.882812 C 268.695312 65.15625 269.890625 65.175781 270.617188 65.929688 C 271.339844 66.675781 271.320312 67.871094 270.574219 68.59375 C 269.820312 69.320312 268.628906 69.300781 267.902344 68.550781 C 267.175781 67.800781 267.195312 66.605469 267.945312 65.882812 Z M 289.035156 57.558594 C 290.078125 57.574219 290.910156 58.433594 290.894531 59.476562 C 290.875 60.519531 290.015625 61.347656 288.976562 61.332031 C 287.933594 61.3125 287.101562 60.453125 287.117188 59.414062 C 287.136719 58.371094 287.992188 57.539062 289.035156 57.558594 Z M 318.167969 87.652344 C 318.152344 88.699219 317.292969 89.527344 316.25 89.511719 C 315.207031 89.492188 314.375 88.636719 314.394531 87.59375 C 314.410156 86.550781 315.269531 85.71875 316.3125 85.738281 C 317.355469 85.753906 318.1875 86.613281 318.167969 87.652344 Z M 307.125 69.199219 C 306.402344 68.449219 306.421875 67.257812 307.171875 66.53125 C 307.917969 65.808594 309.113281 65.824219 309.839844 66.578125 C 310.566406 67.324219 310.546875 68.519531 309.796875 69.242188 C 309.046875 69.96875 307.851562 69.949219 307.125 69.199219 Z M 318.289062 76.285156 C 316.828125 72.382812 314.558594 68.804688 311.71875 65.789062 C 306 59.75 297.867188 56.230469 289.679688 56.085938 C 285.589844 56.007812 281.507812 56.726562 277.730469 58.203125 C 273.945312 59.671875 270.492188 61.910156 267.5625 64.671875 C 261.695312 70.210938 258.140625 78.035156 257.859375 86.050781 C 257.5 94.066406 260.414062 102.152344 265.824219 108.140625 C 268.519531 111.132812 271.789062 113.632812 275.445312 115.398438 C 279.09375 117.171875 283.109375 118.214844 287.195312 118.460938 C 295.363281 118.96875 303.753906 116.105469 309.933594 110.539062 C 313.003906 107.753906 315.554688 104.371094 317.316406 100.597656 C 319.082031 96.828125 320.082031 92.703125 320.273438 88.539062 C 320.414062 84.371094 319.746094 80.183594 318.289062 76.285156 " fill-opacity="1" fill-rule="nonzero"/><path fill="#488ca5" d="M 310.570312 86.5625 C 310.886719 78.636719 306.183594 72.019531 300.070312 71.773438 C 293.957031 71.53125 288.746094 77.753906 288.429688 85.675781 C 288.113281 93.597656 292.8125 100.222656 298.925781 100.464844 C 305.042969 100.707031 310.253906 94.484375 310.570312 86.5625 " fill-opacity="1" fill-rule="nonzero"/><path fill="#488ca5" d="M 309.699219 66.886719 C 309.085938 66.25 308.066406 66.230469 307.429688 66.847656 C 306.71875 67.535156 307.148438 68.785156 307.496094 68.300781 C 308.277344 67.207031 310.054688 67.253906 309.699219 66.886719 " fill-opacity="1" fill-rule="nonzero"/><path fill="#488ca5" d="M 269.828125 105.4375 C 269.210938 104.804688 268.191406 104.785156 267.554688 105.402344 C 266.84375 106.089844 267.277344 107.339844 267.625 106.855469 C 268.40625 105.761719 270.179688 105.804688 269.828125 105.4375 " fill-opacity="1" fill-rule="nonzero"/><path fill="#488ca5" d="M 308.875 106.035156 C 308.183594 105.328125 306.933594 105.757812 307.417969 106.105469 C 308.515625 106.886719 308.46875 108.660156 308.835938 108.308594 C 309.472656 107.691406 309.492188 106.675781 308.875 106.035156 " fill-opacity="1" fill-rule="nonzero"/><path fill="#488ca5" d="M 270.261719 68.453125 C 270.902344 67.839844 270.914062 66.824219 270.300781 66.1875 C 269.609375 65.476562 268.359375 65.90625 268.84375 66.253906 C 269.941406 67.035156 269.894531 68.808594 270.261719 68.453125 " fill-opacity="1" fill-rule="nonzero"/><path fill="#488ca5" d="M 315.292969 87.21875 C 316.621094 87 317.84375 88.285156 317.851562 87.777344 C 317.867188 86.886719 317.160156 86.160156 316.273438 86.144531 C 315.28125 86.128906 314.703125 87.316406 315.292969 87.21875 " fill-opacity="1" fill-rule="nonzero"/><path fill="#488ca5" d="M 262.382812 86.855469 C 262.398438 85.96875 261.6875 85.238281 260.800781 85.226562 C 259.8125 85.210938 259.230469 86.398438 259.820312 86.300781 C 261.148438 86.078125 262.371094 87.367188 262.382812 86.855469 " fill-opacity="1" fill-rule="nonzero"/><path fill="#488ca5" d="M 288.492188 113.894531 C 288.710938 115.222656 287.425781 116.449219 287.9375 116.457031 C 288.824219 116.46875 289.554688 115.761719 289.570312 114.878906 C 289.585938 113.886719 288.394531 113.308594 288.492188 113.894531 " fill-opacity="1" fill-rule="nonzero"/><path fill="#488ca5" d="M 290.488281 59.433594 C 290.503906 58.445312 289.3125 57.867188 289.410156 58.453125 C 289.632812 59.78125 288.34375 61.003906 288.855469 61.011719 C 289.742188 61.027344 290.472656 60.320312 290.488281 59.433594 " fill-opacity="1" fill-rule="nonzero"/><path fill="#d22734" d="M 215.074219 242.570312 C 215.074219 242.570312 215.628906 243.902344 216.390625 245.941406 L 236.316406 229.601562 L 217.09375 247.871094 C 217.445312 248.84375 217.808594 249.910156 218.171875 251.019531 L 234.585938 237.558594 L 218.691406 252.664062 C 219.152344 254.15625 219.589844 255.703125 219.945312 257.199219 L 230.839844 248.265625 L 220.207031 258.367188 C 220.769531 261.003906 221.039062 263.414062 220.710938 265.050781 C 219.507812 271.085938 202.679688 296.804688 202.679688 296.804688 C 201.761719 298 201.496094 299.277344 201.644531 300.332031 L 238.75 259.792969 L 202.925781 302.371094 C 203.710938 302.765625 204.753906 302.589844 205.816406 301.433594 L 240.191406 263.640625 C 241.777344 261.914062 242.484375 259.554688 242.105469 257.238281 L 236.375 222.410156 L 215.074219 242.570312 " fill-opacity="1" fill-rule="nonzero"/><path fill="#ebd5aa" d="M 90.632812 225.914062 C 83 228.464844 75.660156 231.929688 68.992188 236.441406 C 76.902344 233.859375 83.394531 231.367188 92.636719 229.898438 C 99.347656 228.828125 108.363281 229.144531 108.363281 229.144531 L 105.140625 222.980469 C 105.140625 222.980469 96.371094 223.996094 90.632812 225.914062 " fill-opacity="1" fill-rule="nonzero"/><path fill="#ebd5aa" d="M 93.960938 252.363281 L 90.738281 246.199219 C 90.738281 246.199219 81.96875 247.214844 76.230469 249.128906 C 68.597656 251.679688 61.257812 255.148438 54.589844 259.65625 C 62.5 257.078125 68.992188 254.582031 78.234375 253.113281 C 84.945312 252.046875 93.960938 252.363281 93.960938 252.363281 " fill-opacity="1" fill-rule="nonzero"/><path fill="#ebd5aa" d="M 79.515625 262.78125 C 79.515625 262.78125 67.515625 268.902344 55.796875 289.265625 C 51.78125 296.238281 46.46875 315.886719 44.636719 323.71875 C 48.691406 316.460938 56.722656 303.199219 61.488281 295.148438 C 71.125 278.878906 79.515625 262.78125 79.515625 262.78125 " fill-opacity="1" fill-rule="nonzero"/></svg>