<svg xmlns="http://www.w3.org/2000/svg" width="128" height="128" viewBox="0 0 24 24"><g fill-rule="evenodd"><path d="M12.163 2.804a.75.75 0 0 0-.326 0L3.75 4.602v7.954a7.25 7.25 0 0 0 4.008 6.484L12 21.161l4.242-2.12a7.25 7.25 0 0 0 4.008-6.485V4.602l-8.087-1.798Zm-.651-1.464a2.25 2.25 0 0 1 .976 0l8.283 1.84c.572.128.979.635.979 1.221v8.155a8.75 8.75 0 0 1-4.837 7.826l-4.578 2.289a.75.75 0 0 1-.67 0l-4.578-2.289a8.75 8.75 0 0 1-4.837-7.826V4.4c0-.586.407-1.093.979-1.22l8.283-1.84Z"/><path d="M17.53 8.47a.75.75 0 0 1 0 1.06l-6 6a.75.75 0 0 1-1.06 0l-3-3a.75.75 0 1 1 1.06-1.06L11 13.94l5.47-5.47a.75.75 0 0 1 1.06 0Z"/></g></svg>